<svg id="color" enable-background="new 0 0 24 24" height="512" viewBox="0 0 24 24" width="512" xmlns="http://www.w3.org/2000/svg"><path d="m21 1h-18c-1.654 0-3 1.346-3 3v16c0 1.654 1.346 3 3 3h18c1.654 0 3-1.346 3-3v-16c0-1.654-1.346-3-3-3z" fill="#607d8b"/><path d="m21 21h-18c-.551 0-1-.448-1-1v-14h20v14c0 .552-.449 1-1 1z" fill="#fff"/><path d="m18.431 17h-12.862c-.865 0-1.569-.704-1.569-1.569v-5.862c0-.865.704-1.569 1.569-1.569h12.862c.865 0 1.569.704 1.569 1.569v5.862c0 .865-.704 1.569-1.569 1.569z" fill="#90caf9"/><path d="m18.43 17h-12.86c-.866 0-1.57-.704-1.57-1.57v-.28c0-.219.096-.428.263-.57l3.35-2.86c.625-.537 1.545-.54 2.187-.006l2.059 1.709.254-.004 3.046-2.736c.63-.537 1.504-.57 2.141-.092l2.395 1.767c.192.14.305.364.305.602v2.47c0 .866-.704 1.57-1.57 1.57z" fill="#8bc34a"/><path d="m19 20h-14c-.552 0-1-.448-1-1s.448-1 1-1h14c.552 0 1 .448 1 1s-.448 1-1 1z" fill="#b0bec5"/><path d="m12 1h-9c-1.654 0-3 1.346-3 3v16c0 1.654 1.346 3 3 3h9v-2h-9c-.551 0-1-.448-1-1v-14h10z" fill="#546d79"/><path d="m12 6h-10v14c0 .552.449 1 1 1h9v-1h-7c-.552 0-1-.448-1-1s.448-1 1-1h7v-1h-6.431c-.865 0-1.569-.704-1.569-1.569v-5.862c0-.865.704-1.569 1.569-1.569h6.431z" fill="#dedede"/><path d="m12 8h-6.431c-.865 0-1.569.704-1.569 1.569v5.862c0 .865.704 1.569 1.569 1.569h6.431-6.43c-.866 0-1.57-.704-1.57-1.57v-.28c0-.219.096-.428.263-.57l3.35-2.86c.314-.269.702-.404 1.092-.404.387 0 .775.133 1.094.398l2.059 1.709.142-.003z" fill="#7db0d9"/><path d="m8.705 11.315c-.39 0-.778.135-1.092.404l-3.35 2.86c-.167.143-.263.352-.263.571v.28c0 .866.704 1.57 1.57 1.57h6.43v-3.58l-.141.002-2.059-1.708c-.319-.266-.708-.399-1.095-.399z" fill="#79aa40"/><path d="m12 18h-7c-.552 0-1 .448-1 1s.448 1 1 1h7z" fill="#99a5ac"/></svg>