<svg id="Guide" height="512" viewBox="0 0 512 512" width="512" xmlns="http://www.w3.org/2000/svg"><g fill="rgb(0,0,0)"><path d="m250.024 227.342c35.487 0 64.357-28.048 64.357-62.525s-28.87-62.525-64.357-62.525-64.357 28.049-64.357 62.525 28.871 62.525 64.357 62.525zm0-113.05c28.87 0 52.357 22.666 52.357 50.525s-23.487 50.525-52.357 50.525-52.357-22.665-52.357-50.525 23.488-50.525 52.357-50.525z"/><path d="m432.6 350.179v-312.25c0-15.4-12.848-27.929-28.64-27.929h-365.32c-15.792 0-28.64 12.529-28.64 27.929v387.8c0 15.4 12.848 27.93 28.64 27.93h311.916c11.474 28.269 39.859 48.336 73 48.336 43.254.005 78.444-34.165 78.444-76.166 0-39.029-30.391-71.277-69.4-75.65zm-393.96-328.179h365.323c9.175 0 16.64 7.146 16.64 15.929v311.8a79.491 79.491 0 0 0 -43.012 14.429l-43.5-63.189a8.3 8.3 0 0 0 -13.6-.157l-69.749 97.588-118.125-190.876a8.3 8.3 0 0 0 -14.058-.051l-96.559 113.39v-282.934c0-8.783 7.465-15.929 16.64-15.929zm288.542 290.094 23.256 33.784a8.026 8.026 0 0 0 -5.218 1.264l-18.645 12.266-18.467-8.747a8 8 0 0 0 -5.613-.464l-3.2.91zm-157.947-22.594-14.375-3.557a8.2 8.2 0 0 0 -5.893.828c-3.372 1.839-9.114 4.192-14.667 6.468-5.374 2.2-10.488 4.3-14.331 6.237-3.551-1.338-8.173-2.815-13.027-4.367-5.185-1.657-10.546-3.371-13.826-4.7a8.378 8.378 0 0 0 -4.886-.427c-5.565 1.165-18.15 2.8-27.529 3.945l64.442-75.675zm-130.595 152.164c-9.175 0-16.64-7.146-16.64-15.93v-86.362l27.381-32.153a5.976 5.976 0 0 0 1.187-.017c1.187-.133 28.294-3.185 39.071-5.266 3.625 1.4 8.507 2.96 13.65 4.6 5.182 1.656 10.541 3.369 13.815 4.7a8.18 8.18 0 0 0 3.08.6 8.356 8.356 0 0 0 4-1.03c3.373-1.839 9.112-4.191 14.664-6.466 5.51-2.259 10.746-4.405 14.617-6.382l24.8 6.135 65.208 105.37a8.254 8.254 0 0 0 6.767 3.9h.28a8.261 8.261 0 0 0 6.739-3.457l30.841-43.137 16.229-4.619 19.138 9.066a8.049 8.049 0 0 0 7.822-.547l18.711-12.31 12.738 5.39 5.556 8.071a74.853 74.853 0 0 0 -23.189 54.009 74.015 74.015 0 0 0 1.717 15.835zm384.914 48.336c-36.638 0-66.446-28.787-66.446-64.171s29.808-64.172 66.446-64.172 66.446 28.787 66.446 64.172-29.808 64.171-66.446 64.171z"/><path d="m447.854 390.606a6 6 0 0 0 -7.744 3.467l-20.528 53.81-15.239-8.6a6 6 0 0 0 -5.9 10.45l18.34 10.355a10.258 10.258 0 0 0 5.036 1.363 9.271 9.271 0 0 0 2.36-.3 7.047 7.047 0 0 0 4.982-4.7l22.162-58.092a6 6 0 0 0 -3.469-7.753z"/></g></svg>