<svg height="512" viewBox="0 0 128 128" width="512" xmlns="http://www.w3.org/2000/svg"><path d="m114.263 22.315h-2.14v-7.515a6.006 6.006 0 0 0 -6-6h-30a6.007 6.007 0 0 0 -6 6v7.517h-52.386a8.009 8.009 0 0 0 -8 8v66.257a8.009 8.009 0 0 0 8 8h36.844l-1.807 12.088h-9.292a3.16 3.16 0 0 0 -3.157 3.157v.226a3.16 3.16 0 0 0 3.157 3.156h45.037a3.16 3.16 0 0 0 3.156-3.156v-.226a3.16 3.16 0 0 0 -3.156-3.157h-9.293l-1.806-12.088h36.843a8.009 8.009 0 0 0 8-8v-66.259a8.009 8.009 0 0 0 -8-8z" fill="#e6e7e8"/><rect fill="#6dc9f7" height="80.26" rx="7" width="110.526" x="6.737" y="19.314"/><path d="m110.263 19.314h-96.526a7 7 0 0 0 -7 7v59.6h110.526v-59.6a7 7 0 0 0 -7-7z" fill="#d4fbff"/><path d="m19.171 63.272h7.476v14.404h-7.476z" fill="#fa759e"/><path d="m31.764 52.272h7.476v25.404h-7.476z" fill="#ffd7e5"/><path d="m44.357 57.272h7.476v20.404h-7.476z" fill="#fa759e"/><path d="m56.95 48.272h7.476v29.404h-7.476z" fill="#ffd7e5"/><circle cx="22.909" cy="53.479" fill="#fa759e" r="2.5"/><circle cx="35.502" cy="40.479" fill="#ffd7e5" r="2.5"/><circle cx="48.095" cy="48.479" fill="#fa759e" r="2.5"/><circle cx="60.688" cy="34.479" fill="#ffd7e5" r="2.5"/><path d="m110.263 19.314h-96.526a7 7 0 0 0 -7 7v3.369a7.369 7.369 0 0 1 7.368-7.369h95.795a7.369 7.369 0 0 1 7.368 7.369v-3.369a7 7 0 0 0 -7.005-7z" fill="#fff"/><rect fill="#0089ef" height="4.539" rx="2.156" width="49.349" x="37.326" y="113.662"/><path d="m72.259 99.575h-20.518l-2.105 14.087h24.728z" fill="#0089ef"/><path d="m93.228 90.249a2.105 2.105 0 1 0 2.106 2.105 2.106 2.106 0 0 0 -2.106-2.105z" fill="#fff"/><path d="m100.6 90.249a2.105 2.105 0 1 0 2.105 2.105 2.105 2.105 0 0 0 -2.105-2.105z" fill="#0089ef"/><path d="m107.965 90.249a2.105 2.105 0 1 0 2.106 2.105 2.106 2.106 0 0 0 -2.106-2.105z" fill="#fa759e"/><path d="m97.763 60.719a9.733 9.733 0 0 1 -11.306 0 11.161 11.161 0 0 0 -8.1 10.729v4.227a2 2 0 0 0 2 2h23.512a2 2 0 0 0 2-2v-4.227a11.161 11.161 0 0 0 -8.106-10.729z" fill="#ffd7e5"/><circle cx="92.11" cy="52.754" fill="#fff" r="9.775" transform="matrix(.16 -.987 .987 .16 25.283 135.224)"/><path d="m102.123 5.8h-30a5 5 0 0 0 -5 5v17.4a5 5 0 0 0 5 5h10.854v6.543l8.538-6.543h10.608a5 5 0 0 0 5-5v-17.4a5 5 0 0 0 -5-5z" fill="#0089ef"/><g fill="#3a2c60"><path d="m18.171 63.271v13.405h-1.377a1 1 0 1 0 0 2h50.006a1 1 0 0 0 0-2h-1.374v-28.4a1 1 0 0 0 -1-1h-7.476a1 1 0 0 0 -1 1v28.4h-3.117v-19.4a1 1 0 0 0 -1-1h-7.476a1 1 0 0 0 -1 1v19.4h-3.117v-24.4a1 1 0 0 0 -1-1h-7.476a1 1 0 0 0 -1 1v24.4h-3.117v-13.4a1 1 0 0 0 -1-1h-7.476a1 1 0 0 0 -1 .995zm39.779-14h5.476v27.405h-5.476zm-12.593 9h5.476v18.405h-5.476zm-12.593-5h5.476v23.405h-5.476zm-12.593 11h5.476v12.405h-5.476z"/><path d="m22.909 49.979a3.5 3.5 0 1 0 3.5 3.5 3.454 3.454 0 0 0 -.452-1.685l8.011-8.185a3.4 3.4 0 0 0 3.775-.464l7.033 4.278a3.456 3.456 0 0 0 -.181 1.056 3.5 3.5 0 0 0 7 0 3.468 3.468 0 0 0 -.571-1.9l8.235-8.908a3.5 3.5 0 1 0 1.429-6.688 3.488 3.488 0 0 0 -2.943 5.379l-8.245 8.917a3.428 3.428 0 0 0 -3.593.491l-7.066-4.3a3.44 3.44 0 0 0 .159-.991 3.5 3.5 0 0 0 -7 0 3.464 3.464 0 0 0 .5 1.77l-7.972 8.151a3.449 3.449 0 0 0 -1.619-.421zm0 5a1.5 1.5 0 1 1 1.5-1.5 1.5 1.5 0 0 1 -1.5 1.5zm37.779-22a1.5 1.5 0 1 1 -1.5 1.5 1.5 1.5 0 0 1 1.5-1.5zm-12.593 14a1.5 1.5 0 1 1 -1.5 1.5 1.5 1.5 0 0 1 1.505-1.5zm-12.593-8a1.5 1.5 0 1 1 -1.5 1.5 1.5 1.5 0 0 1 1.498-1.5z"/><path d="m110.264 18.314h-2.141v-7.514a6.006 6.006 0 0 0 -6-6h-30a6.006 6.006 0 0 0 -6 6v7.515h-52.386a8.009 8.009 0 0 0 -8 8v34.46a1 1 0 0 0 2 0v-34.461a6.007 6.007 0 0 1 6-6h52.386v7.886a6.006 6.006 0 0 0 6 6h9.854v5.543a1 1 0 0 0 1.609.794l8.268-6.337h10.269a6.006 6.006 0 0 0 6-6v-7.886h2.141a6.007 6.007 0 0 1 6 6v58.6h-108.527v-4.994a1 1 0 0 0 -2 0v12.655a8.009 8.009 0 0 0 8 8h36.844l-1.806 12.087h-9.294a3.159 3.159 0 0 0 -3.155 3.156v.227a3.159 3.159 0 0 0 3.155 3.156h45.037a3.16 3.16 0 0 0 3.157-3.156v-.227a3.16 3.16 0 0 0 -3.157-3.156h-9.292l-1.807-12.087h36.845a8.009 8.009 0 0 0 8-8v-66.261a8.009 8.009 0 0 0 -8-8zm-4.141 9.886a4 4 0 0 1 -4 4h-10.607a1 1 0 0 0 -.609.206l-6.93 5.311v-4.517a1 1 0 0 0 -1-1h-10.854a4 4 0 0 1 -4-4v-17.4a4 4 0 0 1 4-4h30a4 4 0 0 1 4 4zm-20.448 87.618v.227a1.158 1.158 0 0 1 -1.157 1.156h-45.037a1.157 1.157 0 0 1 -1.155-1.156v-.227a1.156 1.156 0 0 1 1.155-1.156h45.037a1.157 1.157 0 0 1 1.157 1.156zm-12.475-3.156h-22.4l1.8-12.087h18.8zm37.06-14.087h-96.523a6.007 6.007 0 0 1 -6-6v-5.663h108.527v5.663a6.007 6.007 0 0 1 -6 6z"/><path d="m6.737 76.863a1 1 0 0 0 1-1v-10.877a1 1 0 1 0 -2 0v10.877a1 1 0 0 0 1 1z"/><path d="m77.353 71.448v4.228a3 3 0 0 0 3 3h23.513a3 3 0 0 0 3-3v-4.228a12.162 12.162 0 0 0 -7.156-11.065 10.775 10.775 0 1 0 -15.2 0 12.165 12.165 0 0 0 -7.157 11.065zm5.982-18.694a8.775 8.775 0 1 1 8.775 8.774 8.785 8.785 0 0 1 -8.775-8.774zm2.976 9.066a10.7 10.7 0 0 0 11.6 0 10.166 10.166 0 0 1 6.957 9.628v4.228a1 1 0 0 1 -1 1h-23.515a1 1 0 0 1 -1-1v-4.228a10.165 10.165 0 0 1 6.958-9.628z"/></g><path d="m84.6 25.494a1.326 1.326 0 0 1 -.429.978 1.373 1.373 0 0 1 -.986.418 1.533 1.533 0 0 1 -1.137-.519l-6.178-6.041v5.07a1.557 1.557 0 1 1 -3.11 0v-11.191a1.509 1.509 0 0 1 .419-1.116 1.749 1.749 0 0 1 2.272 0 1.5 1.5 0 0 1 .419 1.116v4.766l6.022-5.842a1.373 1.373 0 0 1 1-.438 1.354 1.354 0 0 1 .976.408 1.305 1.305 0 0 1 .419.968 1.408 1.408 0 0 1 -.478 1.036l-4.745 4.446 5.081 4.947a1.4 1.4 0 0 1 .455.994z" fill="#fff"/><path d="m86.7 26.531a1.536 1.536 0 0 1 -.419-1.136v-11.165a1.319 1.319 0 0 1 1.457-1.455h5a5.124 5.124 0 0 1 3.57 1.156 4.141 4.141 0 0 1 1.275 3.229 4.145 4.145 0 0 1 -1.275 3.231 5.133 5.133 0 0 1 -3.57 1.156h-3.35v3.853a1.61 1.61 0 0 1 -2.688 1.131zm5.639-7.331q2.333 0 2.332-2.014 0-2.036-2.332-2.034h-2.951v4.048z" fill="#fff"/><path d="m100.015 26.531a1.532 1.532 0 0 1 -.415-1.131v-11.191a1.5 1.5 0 0 1 .419-1.116 1.749 1.749 0 0 1 2.272 0 1.5 1.5 0 0 1 .419 1.116v11.191a1.609 1.609 0 0 1 -2.691 1.136z" fill="#fff"/></svg>